<svg width="153" height="36" viewBox="0 0 153 36" fill="none" xmlns="http://www.w3.org/2000/svg">
<path d="M50.0073 27.2945L62.5782 11.1534V11.0218H51.3276C51.1845 11.0171 51.0485 10.9582 50.9472 10.8569C50.846 10.7557 50.787 10.6197 50.7823 10.4766V8.83457C50.787 8.69146 50.846 8.55549 50.9472 8.45423C51.0485 8.35298 51.1845 8.29403 51.3276 8.28933H67.0414C67.1845 8.29403 67.3205 8.35298 67.4217 8.45423C67.523 8.55549 67.5819 8.69146 67.5866 8.83457V9.2106L54.9949 25.6013V25.6316H66.2758C66.5766 25.6316 66.821 25.876 66.821 26.1768V27.8125C66.821 27.9571 66.7636 28.0958 66.6613 28.1981C66.5591 28.3003 66.4204 28.3578 66.2758 28.3578H50.5452C50.4021 28.3531 50.2662 28.2941 50.1649 28.1929C50.0636 28.0916 50.0047 27.9556 50 27.8125V27.2934H50.0073V27.2945ZM73.3138 8.83457C73.3185 8.69146 73.3774 8.55549 73.4787 8.45423C73.5799 8.35298 73.7159 8.29403 73.859 8.28933H75.7392C75.8823 8.29403 76.0182 8.35298 76.1195 8.45423C76.2207 8.55549 76.2797 8.69146 76.2844 8.83457V27.8084C76.2797 27.9515 76.2207 28.0874 76.1195 28.1887C76.0182 28.2899 75.8823 28.3489 75.7392 28.3536H73.859C73.7159 28.3489 73.5799 28.2899 73.4787 28.1887C73.3774 28.0874 73.3185 27.9515 73.3138 27.8084V8.83457ZM84.7221 8.83457C84.7221 8.53375 84.9665 8.28933 85.2673 8.28933H91.8029C92.6424 8.28734 93.474 8.45072 94.2503 8.77014C95.0267 9.08955 95.7325 9.55875 96.3275 10.1509C96.9225 10.7431 97.395 11.4467 97.7181 12.2215C98.0412 12.9963 98.2085 13.8272 98.2105 14.6667C98.2125 15.5061 98.0491 16.3378 97.7297 17.1141C97.4103 17.8905 96.9411 18.5963 96.3489 19.1913C95.7567 19.7863 95.0531 20.2588 94.2783 20.5819C93.5035 20.905 92.6726 21.0723 91.8332 21.0743H87.6739V27.8084C87.6692 27.9515 87.6102 28.0874 87.509 28.1887C87.4077 28.2899 87.2718 28.3489 87.1286 28.3536H85.2485C85.1039 28.3536 84.9652 28.2962 84.863 28.1939C84.7607 28.0916 84.7033 27.953 84.7033 27.8084V8.83457H84.7221ZM91.6305 18.2656C92.1106 18.2639 92.5856 18.1677 93.0285 17.9822C93.4713 17.7968 93.8732 17.5259 94.2112 17.185C94.5492 16.844 94.8167 16.4398 94.9983 15.9954C95.1799 15.551 95.2721 15.0752 95.2697 14.5951C95.2575 14.13 95.1536 13.6718 94.964 13.2469C94.7743 12.822 94.5027 12.4388 94.1646 12.1191C93.8265 11.7994 93.4286 11.5497 92.9937 11.3841C92.5589 11.2186 92.0956 11.1406 91.6305 11.1545H87.6739V18.2656H91.6305ZM104.614 8.83457C104.614 8.53375 104.858 8.28933 105.159 8.28933H111.695C113.39 8.28532 115.018 8.95496 116.219 10.1509C117.421 11.3469 118.098 12.9713 118.102 14.6667C118.106 16.3621 117.437 17.9896 116.241 19.1913C115.045 20.3929 113.42 21.0703 111.725 21.0743H107.57V27.8084C107.565 27.9515 107.506 28.0874 107.405 28.1887C107.304 28.2899 107.168 28.3489 107.025 28.3536H105.145C105 28.3536 104.861 28.2962 104.759 28.1939C104.657 28.0916 104.599 27.953 104.599 27.8084V8.83457H104.614ZM111.522 18.2656C112.003 18.2639 112.478 18.1677 112.92 17.9822C113.363 17.7968 113.765 17.5259 114.103 17.185C114.441 16.844 114.709 16.4398 114.89 15.9954C115.072 15.551 115.164 15.0752 115.162 14.5951C115.149 14.13 115.046 13.6718 114.856 13.2469C114.666 12.822 114.395 12.4388 114.056 12.1191C113.718 11.7994 113.32 11.5497 112.886 11.3841C112.451 11.2186 111.988 11.1406 111.522 11.1545H107.57V18.2656H111.526H111.522ZM124.51 8.83457C124.515 8.69146 124.574 8.55549 124.675 8.45423C124.776 8.35298 124.912 8.29403 125.055 8.28933H126.935C127.079 8.29403 127.215 8.35298 127.316 8.45423C127.417 8.55549 127.476 8.69146 127.481 8.83457V27.8084C127.476 27.9515 127.417 28.0874 127.316 28.1887C127.215 28.2899 127.079 28.3489 126.935 28.3536H125.055C124.912 28.3489 124.776 28.2899 124.675 28.1887C124.574 28.0874 124.515 27.9515 124.51 27.8084V8.83457ZM133.222 27.6099L142.026 8.31545C142.078 8.22963 142.15 8.15674 142.234 8.10214C142.319 8.04755 142.415 8.01264 142.515 8H142.8C142.9 8.01264 142.995 8.04755 143.08 8.10214C143.165 8.15674 143.236 8.22963 143.289 8.31545L152.031 27.6099C152.076 27.6905 152.098 27.7818 152.095 27.874C152.091 27.9661 152.063 28.0557 152.013 28.133C151.963 28.2103 151.892 28.2725 151.809 28.3128C151.727 28.3531 151.634 28.3701 151.542 28.362H149.737C149.593 28.3717 149.45 28.3344 149.328 28.2557C149.207 28.177 149.115 28.0611 149.065 27.9253L147.297 24H137.923C137.351 25.3193 136.746 26.6092 136.174 27.9253C136.118 28.0509 136.028 28.1578 135.913 28.2337C135.799 28.3095 135.665 28.3511 135.528 28.3536H133.723C133.631 28.3631 133.539 28.3475 133.455 28.3085C133.372 28.2694 133.301 28.2084 133.249 28.132C133.198 28.0556 133.168 27.9667 133.163 27.8747C133.159 27.7827 133.179 27.6912 133.222 27.6099ZM146.211 21.5329L142.672 13.678H142.529L139.032 21.5329H146.21H146.211Z" fill="white"/>
<path d="M0 18.45H3.88912V32.266H32.2391V27.2323H7.86267L18.3001 13.597H0V0H36V17.4375H32.2899V3.95045H3.8352V8.77474H27.999L17.7182 22.253H36V36H0V18.45Z" fill="white"/>
</svg>
